# xmcd CD database file
#
# Track frame offsets:
#	150
#	18725
#	35840
#	54585
#	73637
#	90647
#	114300
#	130872
#	150510
#	161912
#	176272
#
# Disc length: 2569 seconds
#
# Revision: 0
# Processed by: cddbd v1.4PL0 Copyright (c) Steve Scherf et al.
# Submitted via: CDex 1.50Beta7
#
DISCID=8e0a070b
DTITLE=Roberto Gimenez and Railes - Hold your fire
DYEAR=2000
DGENRE=Blues
TTITLE0=Hold your fire
TTITLE1=Born under a bad sign
TTITLE2=Jumpin' Jack Flash
TTITLE3=Lost beneath the sun
TTITLE4=Tu amigo
TTITLE5=Gallo colorao blues
TTITLE6=Hot hat shuffle
TTITLE7=Mis dos estrellitas
TTITLE8=Mandy
TTITLE9=Jumpin' Jack Flash (acoustic)
TTITLE10=Tras tu marcha
EXTD=YEAR: 2000
EXTT0=
EXTT1=
EXTT2=
EXTT3=
EXTT4=
EXTT5=
EXTT6=
EXTT7=
EXTT8=
EXTT9=
EXTT10=
PLAYORDER=
